{"glyphs":{"0":{"x_min":40,"x_max":525,"ha":474,"o":"m 212 1 l 212 1 q 151 1 113 30.5 q 75 60 57.5 109.5 q 40 159 40 219 l 40 219 q 40 296 65.5 386 q 91 476 141 558 l 141 558 q 189 635 251 685 q 313 735 380 735 l 380 735 q 430 735 462 702.5 q 494 670 509.5 615 q 525 560 525 492 l 525 492 q 525 408 504.5 324 q 484 240 444 166 l 444 166 q 404 93 344.5 47 q 285 1 212 1 m 242 169 l 242 169 q 280 169 310.5 193.5 q 341 218 363 257 q 385 296 397 340 q 409 384 409 423 l 409 423 q 409 466 392.5 496 q 376 526 340 526 l 340 526 q 311 526 284 498.5 q 257 471 236 428.5 q 215 386 202.5 338.5 q 190 291 190 252 l 190 252 q 190 215 202 192 q 214 169 242 169"},"1":{"x_min":73,"x_max":399,"ha":320,"o":"m 91 4 l 91 4 l 130 184 q 136 214 145 257.5 q 154 301 163.5 349 q 173 397 181 440 q 189 483 194 513 l 194 513 q 169 511 147 507 l 147 507 l 108 501 q 88 497 73 495 l 73 495 q 74 502 75.5 513 q 77 524 79 538 l 79 538 l 88 596 q 90 613 92.5 631.5 q 95 650 98 670 l 98 670 q 109 672 125.5 675.5 q 142 679 162 683 l 162 683 l 255 698 q 284 703 320 708.5 q 356 714 399 721 l 399 721 q 359 553 328 387 q 297 221 269 43 l 269 43 q 246 36 216 29 q 186 22 157 17 l 157 17 q 141 13 124.5 10 q 108 7 91 4"},"2":{"x_min":1,"x_max":538,"ha":467,"o":"m 170 21 l 1 9 l 18 135 q 21 165 48.5 199.5 q 76 234 116 269.5 q 156 305 196 335 l 196 335 q 238 367 276 397 q 314 427 338 453 q 362 479 362 497 l 362 497 q 362 527 350.5 543.5 q 339 560 322 560 l 322 560 q 289 560 275 535 q 261 510 261 479 l 261 479 l 261 469 q 261 466 262 465 l 262 465 q 249 464 234.5 463 q 220 462 206 460 l 206 460 q 193 459 179.5 458 q 166 457 151 455 l 151 455 q 135 453 120 451.5 q 105 450 90 448 l 90 448 q 89 456 88.5 464.5 q 88 473 88 480 l 88 480 q 88 539 110.5 585.5 q 133 632 170.5 664 q 208 696 254 712.5 q 300 729 346 729 l 346 729 q 397 729 440.5 707.5 q 484 686 511 641.5 q 538 597 538 529 l 538 529 q 538 479 512 431.5 q 486 384 440 339 l 440 339 q 394 293 331 250 q 268 207 194 168 l 194 168 q 239 168 301.5 172 q 364 176 447 183 l 447 183 l 431 38 q 384 34 314 30 q 244 26 170 21 l 170 21"},"3":{"x_min":10,"x_max":518,"ha":458,"o":"m 175 -12 l 175 -12 q 129 -12 91.5 2.5 q 54 17 32 47 q 10 77 10 123 l 10 123 q 10 146 19 174 l 19 174 l 194 184 q 194 164 204 155 q 214 146 229 146 l 229 146 q 247 146 267 157 q 287 168 301.5 186.5 q 316 205 316 226 l 316 226 q 316 250 293 270 q 270 290 217 290 l 217 290 q 198 290 178.5 288.5 q 159 287 140 285 l 140 285 q 121 282 105 280 q 89 278 76 277 l 76 277 l 94 425 q 124 444 156 465.5 q 188 487 214 507 l 214 507 q 230 518 244.5 529.5 q 259 541 273 552 l 273 552 l 112 549 l 124 721 q 170 723 212 725 q 254 727 293 729 l 293 729 q 367 729 419.5 732.5 q 472 736 518 736 l 518 736 l 494 523 l 294 418 q 397 399 438.5 354.5 q 480 310 480 256 l 480 256 q 480 209 455 161.5 q 430 114 387 75 q 344 36 289.5 12 q 235 -12 175 -12"},"4":{"x_min":22,"x_max":503,"ha":459,"o":"m 402 30 l 218 -2 l 238 158 l 66 145 l 22 235 l 85 424 q 114 509 138 585.5 q 162 662 180 712 l 180 712 q 222 712 259.5 714.5 q 297 717 340 723 l 340 723 q 303 630 271.5 536 q 240 442 210 345 l 210 345 q 209 332 205 321 l 205 321 l 276 321 q 282 362 290 399.5 q 298 437 305 477 l 305 477 q 310 506 316 538 q 322 570 329 604 l 329 604 l 394 613 q 421 617 450 620 q 479 623 500 625 l 500 625 q 499 609 491 569.5 q 483 530 474 473 l 474 473 q 468 438 460.5 396.5 q 453 355 446 321 l 446 321 l 503 321 l 462 161 l 411 161 l 402 30"},"5":{"x_min":44,"x_max":516,"ha":450,"o":"m 206 -5 l 206 -5 q 130 -5 87 44 q 44 93 44 173 l 44 173 q 44 192 45.5 213 q 47 234 49 257 l 49 257 l 203 245 q 198 228 198 221 l 198 221 q 198 201 210 192 q 222 183 238 183 l 238 183 q 266 183 290.5 207 q 315 231 315 278 l 315 278 q 315 304 294.5 322 q 274 340 209 340 l 209 340 q 198 340 184.5 339 q 171 338 145 334.5 q 119 331 69 322 l 69 322 q 80 397 96 494.5 q 112 592 135 715 l 135 715 l 516 729 l 496 566 q 468 565 440 564 q 412 563 383 562 l 383 562 q 354 561 324.5 560 q 295 559 265 557 l 265 557 l 255 473 q 319 473 364 461 q 409 449 437 428 l 437 428 q 465 407 477.5 378.5 q 490 350 490 315 l 490 315 q 490 266 465.5 209.5 q 441 153 397 103 l 397 103 q 352 52 302 23.5 q 252 -5 206 -5"},"6":{"x_min":52,"x_max":532,"ha":478,"o":"m 261 5 l 261 5 q 205 5 157 33 q 109 61 80.5 116 q 52 171 52 253 l 52 253 q 52 375 85 466.5 q 118 558 167 619 l 167 619 q 217 679 274.5 708.5 q 332 738 383 738 l 383 738 q 455 738 493.5 688.5 q 532 639 532 565 l 532 565 l 395 500 q 395 571 358 571 l 358 571 q 341 571 321 544 q 301 517 282.5 474.5 q 264 432 252 383 l 252 383 q 274 390 294.5 393 q 315 396 334 396 l 334 396 q 389 396 426.5 371.5 q 464 347 483.5 307.5 q 503 268 503 224 l 503 224 q 503 170 476 120 q 449 70 395.5 37.5 q 342 5 261 5 m 278 155 l 278 155 q 318 155 345 180.5 q 372 206 372 235 l 372 235 q 372 251 355 263 l 355 263 q 339 275 294 275 l 294 275 q 280 275 264.5 273 q 249 271 230 265 l 230 265 q 229 262 229 259 q 229 256 229 253 l 229 253 l 229 241 q 229 195 244 175 l 244 175 q 259 155 278 155"},"7":{"x_min":29,"x_max":462,"ha":339,"o":"m 208 25 l 29 9 l 228 556 l 80 534 l 111 710 l 462 740 l 208 25"},"8":{"x_min":20,"x_max":588,"ha":518,"o":"m 227 -11 l 227 -11 q 167 -11 120.5 6 q 74 23 47 59.5 q 20 96 20 154 l 20 154 q 20 200 36.5 248.5 q 53 297 88 337 q 123 377 180 397 l 180 397 q 147 424 132.5 453 q 118 482 118 513 l 118 513 q 118 557 144 598 q 170 639 214 672 q 258 705 311.5 724.5 q 365 744 419 744 l 419 744 q 476 744 513.5 722.5 q 551 701 569.5 666.5 q 588 632 588 592 l 588 592 q 588 540 556.5 488.5 q 525 437 467 411 l 467 411 q 502 374 517.5 333.5 q 533 293 533 253 l 533 253 q 533 201 509 153.5 q 485 106 443 69 q 401 32 345.5 10.5 q 290 -11 227 -11 m 329 441 l 329 441 q 354 441 377 456.5 q 400 472 415.5 493.5 q 431 515 431 533 l 431 533 q 431 559 408 570 q 385 581 361 581 l 361 581 q 318 581 296.5 554.5 q 275 528 275 498 l 275 498 q 275 476 289.5 458.5 q 304 441 329 441 m 254 142 l 254 142 q 325 142 354 171 q 383 200 383 235 l 383 235 q 383 286 361.5 306.5 q 340 327 311 327 l 311 327 q 277 327 243.5 308.5 q 210 290 187.5 262 q 165 234 165 205 l 165 205 q 165 180 185 161 q 205 142 254 142"},"9":{"x_min":70,"x_max":544,"ha":489,"o":"m 146 7 l 146 7 l 161 173 q 229 173 279 218 q 329 263 348 341 l 348 341 q 325 327 299.5 320 q 274 313 249 313 l 249 313 q 204 313 163 337 q 122 361 96 405.5 q 70 450 70 510 l 70 510 q 70 585 105 637 q 140 689 194.5 716 q 249 743 307 743 l 307 743 q 368 743 422 713.5 q 476 684 510 624 q 544 564 544 471 l 544 471 q 544 369 510 284 q 476 199 420 137 l 420 137 q 364 76 293 41.5 q 222 7 146 7 m 303 466 l 303 466 q 328 466 349 480 q 370 494 370 521 l 370 521 q 370 567 353.5 582.5 q 337 598 314 598 l 314 598 q 297 598 278 589.5 q 259 581 246 566 q 233 551 233 529 l 233 529 q 233 496 255 481 q 277 466 303 466"}," ":{"x_min":0,"x_max":0,"ha":195,"o":""},"!":{"x_min":-4,"x_max":389,"ha":263,"o":"m 86 231 l 86 231 q 102 293 117 354 q 132 415 147 476 l 147 476 q 161 537 176.5 598.5 q 192 660 208 721 l 208 721 q 265 730 312 736 q 359 742 389 747 l 389 747 q 335 621 290.5 493.5 q 246 366 202 237 l 202 237 q 173 237 144 235 q 115 233 86 231 m 84 -23 l 84 -23 q 54 -23 34.5 -8.5 q 15 6 5.5 27.5 q -4 49 -4 71 l -4 71 q -4 111 22.5 140.5 q 49 170 96 170 l 96 170 q 154 170 183 142.5 q 212 115 212 80 l 212 80 q 212 40 179 8.5 q 146 -23 84 -23"},"\"":{"x_min":72,"x_max":570,"ha":421,"o":"m 438 460 l 285 450 q 296 479 307.5 508.5 q 319 538 329 566 l 329 566 q 348 616 367.5 671.5 q 387 727 400 772 l 400 772 q 449 774 485 778 q 521 782 570 788 l 570 788 q 552 738 529.5 681.5 q 507 625 486 575 l 486 575 l 438 460 m 213 459 l 72 440 l 107 569 q 117 606 122 625.5 q 127 645 130.5 657 q 134 669 137.5 682 q 141 695 146.5 717 q 152 739 162 780 l 162 780 q 167 779 171.5 779 q 176 779 180 779 l 180 779 l 195 779 q 214 779 231.5 779.5 q 249 780 265 781 l 265 781 q 282 782 300 782.5 q 318 783 337 783 l 337 783 q 319 742 297 686.5 q 275 631 257 580 l 257 580 q 246 551 235 520.5 q 224 490 213 459 l 213 459"},"#":{"x_min":44,"x_max":689,"ha":626,"o":"m 59 -5 l 59 -5 q 70 31 81 67.5 q 92 104 102 140 l 102 140 q 97 140 89.5 140 q 82 140 73 139 l 73 139 q 64 138 56.5 138 q 49 138 44 138 l 44 138 l 62 303 q 68 303 84 304 q 100 305 116.5 306 q 133 307 138 307 l 138 307 q 140 314 143 332.5 q 146 351 149 370.5 q 152 390 153 398 l 153 398 l 85 398 l 89 433 q 90 444 91 456 q 92 468 93 479 l 93 479 l 99 538 l 178 543 q 185 575 190 608 l 190 608 q 192 622 195 636 q 198 650 200 664 l 200 664 q 202 678 204.5 689.5 q 207 701 209 711 l 209 711 q 238 713 273.5 717 q 309 721 369 724 l 369 724 q 367 716 364 704 q 361 692 358 678 l 358 678 l 346 619 q 339 585 331 547 l 331 547 l 440 553 q 444 571 448 588.5 q 452 606 456 622 l 456 622 l 471 680 q 475 694 477.5 706 q 480 718 482 726 l 482 726 q 521 728 559 732 q 597 736 636 741 l 636 741 q 633 733 629.5 721 q 626 709 622 694 l 622 694 q 618 678 614 663.5 q 610 649 606 635 l 606 635 q 602 618 598 600 q 594 582 589 563 l 589 563 l 689 567 l 677 515 q 672 492 666.5 464.5 q 661 437 657 411 l 657 411 l 553 405 q 549 385 546.5 373.5 q 544 362 542 349.5 q 540 337 535 314 l 535 314 l 645 321 q 638 282 631 239.5 q 624 197 619 158 l 619 158 q 614 158 611 159 l 611 159 l 598 159 q 570 159 546.5 158 q 523 157 510 157 l 510 157 q 506 140 503 123 q 500 106 498 89 l 498 89 q 496 72 493 55 q 490 38 486 21 l 486 21 q 445 22 405 22.5 q 365 23 325 23 l 325 23 l 343 90 q 348 106 351.5 122.5 q 355 139 359 156 l 359 156 q 353 156 337.5 155 q 322 154 303 152.5 q 284 151 269.5 150 q 255 149 250 149 l 250 149 q 244 114 237 79.5 q 230 45 222 11 l 222 11 q 181 9 140.5 5.5 q 100 2 59 -5 m 305 398 l 284 307 q 325 307 350.5 310 q 376 313 386 313 l 386 313 q 391 313 394 329 q 397 345 401 366.5 q 405 388 410 404 l 410 404 q 363 404 336.5 401 q 310 398 305 398 l 305 398"},"$":{"x_min":21,"x_max":513,"ha":442,"o":"m 267 -61 l 142 -72 l 148 -40 q 151 -26 155 -10 q 159 6 164 20 l 164 20 q 128 23 91.5 44 q 55 65 21 108 l 21 108 l 93 254 q 102 236 119 216.5 q 136 197 156 183.5 q 176 170 193 170 l 193 170 q 219 170 240 186.5 q 261 203 261 244 l 261 244 q 261 270 234.5 298.5 q 208 327 176 356 l 176 356 q 142 386 116.5 422.5 q 91 459 91 499 l 91 499 q 91 541 114 576 q 137 611 175.5 639 q 214 667 258 686 l 258 686 q 266 723 272.5 747 q 279 771 287 797 l 287 797 l 424 813 l 384 712 q 440 710 476.5 680.5 q 513 651 513 589 l 513 589 q 513 582 512.5 575.5 q 512 569 511 562 l 511 562 q 510 555 509 548.5 q 508 542 507 534 l 507 534 l 363 502 q 364 513 366 518 l 366 518 q 367 520 367 524 l 367 524 q 367 555 355.5 568 q 344 581 328 581 l 328 581 q 317 581 302.5 574.5 q 288 568 277.5 555.5 q 267 543 267 524 l 267 524 q 267 501 295.5 479 q 324 457 358 431 l 358 431 q 391 406 419.5 363.5 q 448 321 448 258 l 448 258 q 448 205 426 160 q 404 115 365 82.5 q 326 50 276 34 l 276 34 q 272 6 269.5 -22 q 267 -50 267 -61 l 267 -61"},"%":{"x_min":82,"x_max":820,"ha":799,"o":"m 211 304 l 211 304 q 143 304 112.5 345 q 82 386 82 445 l 82 445 q 82 496 101 551.5 q 120 607 153.5 656 q 187 705 231 735.5 q 275 766 324 766 l 324 766 q 363 766 387.5 743.5 q 412 721 423 685 q 434 649 434 608 l 434 608 q 434 557 419 504 q 404 451 375.5 405.5 q 347 360 305.5 332 q 264 304 211 304 m 345 74 l 275 -29 l 109 10 q 120 21 144 55 q 168 89 208 145 l 208 145 q 242 195 282.5 254.5 q 323 314 371 384 l 371 384 q 448 498 498 573.5 q 548 649 576.5 693.5 q 605 738 616 756 l 616 756 q 633 752 649.5 748.5 q 666 745 682 742 l 682 742 q 708 736 736 731 q 764 726 780 724 l 780 724 q 737 661 682 579 q 627 497 568 409 l 568 409 q 599 441 634.5 461 q 670 481 710 481 l 710 481 q 749 481 773 459.5 q 797 438 808.5 402.5 q 820 367 820 324 l 820 324 q 820 273 804.5 219.5 q 789 166 760 120.5 q 731 75 690 47.5 q 649 20 597 20 l 597 20 q 528 20 498 61.5 q 468 103 468 161 l 468 161 q 468 237 506 315 l 506 315 q 459 246 417.5 184 q 376 122 345 74 l 345 74 m 238 426 l 238 426 q 268 426 290.5 445 q 313 464 325 492 q 337 520 337 546 l 337 546 q 337 570 325.5 587 q 314 604 290 604 l 290 604 q 266 604 246 581.5 q 226 559 214 528.5 q 202 498 202 473 l 202 473 q 202 453 210.5 439.5 q 219 426 238 426 m 624 142 l 624 142 q 654 142 676 161 q 698 180 710.5 208 q 723 236 723 262 l 723 262 q 723 286 711.5 302.5 q 700 319 676 319 l 676 319 q 652 319 632 297 q 612 275 600 244.5 q 588 214 588 188 l 588 188 q 588 169 596 155.5 q 604 142 624 142"},"&":{"x_min":20,"x_max":604,"ha":535,"o":"m 219 -13 l 219 -13 q 151 -13 107 10 q 63 33 41.5 72.5 q 20 112 20 161 l 20 161 q 20 211 41.5 261 q 63 311 102 350 q 141 389 194 403 l 194 403 q 161 420 137 448.5 q 113 477 113 514 l 113 514 q 113 582 150.5 633 q 188 684 249 713 q 310 742 381 742 l 381 742 q 428 742 467.5 720.5 q 507 699 529 661 l 529 661 l 447 569 q 434 581 423.5 589.5 q 413 598 396 603 q 379 608 346 608 l 346 608 q 306 608 286.5 582 q 267 556 267 521 l 267 521 q 267 482 289 455.5 q 311 429 351 429 l 351 429 l 361 429 q 364 429 367 429.5 q 370 430 373 431 l 373 431 q 373 440 374 444 l 374 444 q 375 447 375 450 q 375 453 376 457 l 376 457 q 376 466 377 470 l 377 470 q 397 470 415.5 470.5 q 434 471 451 472 l 451 472 q 468 473 486 474 q 504 475 523 476 l 523 476 q 521 470 521 461 l 521 461 l 521 436 q 532 436 551 440 q 570 444 593 449 l 593 449 l 604 347 q 577 343 555 339.5 q 533 336 525 336 l 525 336 q 525 237 495 158 q 465 79 398 33 q 331 -13 219 -13 m 252 113 l 252 113 q 288 113 309.5 137 q 331 161 342.5 197 q 354 233 359 270 q 364 307 366 332 l 366 332 q 268 325 223.5 282.5 q 179 240 179 185 l 179 185 q 179 153 198.5 133 q 218 113 252 113"},"'":{"x_min":78,"x_max":340,"ha":202,"o":"m 242 478 l 78 461 l 105 569 q 117 616 130.5 672 q 144 728 155 778 l 155 778 q 164 777 182 776 q 200 775 215 775 q 230 775 233 775 l 233 775 q 257 775 284.5 779.5 q 312 784 340 789 l 340 789 l 242 478"},"(":{"x_min":43,"x_max":479,"ha":334,"o":"m 356 -18 l 226 -137 q 147 -98 97 1 l 97 1 q 72 51 57.5 113.5 q 43 176 43 251 l 43 251 q 43 426 121.5 589 q 200 752 353 877 l 353 877 l 479 758 q 437 722 388.5 672 q 340 622 300 560 l 300 560 q 260 497 233.5 421.5 q 207 346 207 259 l 207 259 q 207 213 221 169 q 235 125 257.5 87.5 q 280 50 306 22.5 q 332 -5 356 -18 l 356 -18"},")":{"x_min":-57,"x_max":392,"ha":331,"o":"m 34 -137 l 34 -137 l -57 2 q 9 31 58.5 83.5 q 108 136 140.5 203 q 173 270 189.5 341.5 q 206 413 206 480 l 206 480 q 206 572 178 646 q 150 720 96 760 l 96 760 l 253 877 q 323 798 357.5 701 q 392 604 392 498 l 392 498 q 392 404 370 318 q 348 232 310.5 158 q 273 84 226.5 24.5 q 180 -35 130 -76 q 80 -117 34 -137"},"*":{"x_min":76,"x_max":469,"ha":423,"o":"m 415 270 l 289 221 l 259 349 l 188 224 l 76 273 l 171 383 l 76 377 l 90 496 l 197 485 l 132 604 l 239 669 l 292 523 l 373 668 l 466 597 l 369 489 l 469 501 l 461 370 l 342 387 l 415 270"},"+":{"x_min":59,"x_max":359,"ha":330,"o":"m 232 119 l 113 112 q 120 144 123 159.5 q 126 175 129.5 190 q 133 205 139 234 l 139 234 l 59 234 q 62 273 66.5 312 q 71 351 75 383 l 75 383 l 86 383 q 106 383 126.5 384 q 147 385 167 388 l 167 388 q 169 398 170.5 408 q 172 418 174 428 l 174 428 q 176 436 177.5 445 q 179 454 181 464 l 181 464 q 183 474 184.5 483.5 q 186 493 188 503 l 188 503 q 219 505 249 507 q 279 509 309 514 l 309 514 q 307 504 304 493.5 q 301 483 299 472 l 299 472 q 297 461 294 451 q 291 441 289 432 l 289 432 l 280 389 q 287 390 294.5 390.5 q 302 391 309 392 l 309 392 l 335 395 q 342 396 348 396 q 354 396 359 397 l 359 397 q 351 360 346 337.5 q 341 315 337 292.5 q 333 270 326 233 l 326 233 q 321 233 315.5 233 q 310 233 303 234 l 303 234 l 277 234 q 270 234 262.5 234 q 255 234 247 235 l 247 235 q 246 225 245.5 215 q 245 205 243 195 l 243 195 q 241 178 238.5 158 q 236 138 232 119 l 232 119"},",":{"x_min":-34,"x_max":205,"ha":197,"o":"m 123 -111 l -34 -111 q -24 -60 -12 -5 q 0 50 10 99 q 20 148 24 180 l 24 180 l 50 180 q 58 179 65 179 q 72 179 76 179 l 76 179 q 106 179 123.5 179.5 q 141 180 158.5 180.5 q 176 181 205 182 l 205 182 q 191 115 168.5 39 q 146 -37 123 -111 l 123 -111"},"-":{"x_min":41,"x_max":399,"ha":360,"o":"m 399 417 l 365 238 q 310 240 261.5 241 q 213 242 180 242 l 180 242 q 148 242 111 240.5 q 74 239 41 239 l 41 239 l 89 416 q 131 415 169 413.5 q 207 412 232 412 l 232 412 q 270 412 313.5 413 q 357 414 399 417 l 399 417"},".":{"x_min":-8,"x_max":208,"ha":209,"o":"m 80 -23 l 80 -23 q 50 -23 30.5 -8.5 q 11 6 1.5 27.5 q -8 49 -8 71 l -8 71 q -8 111 18.5 140.5 q 45 170 92 170 l 92 170 q 150 170 179 142.5 q 208 115 208 80 l 208 80 q 208 40 175 8.5 q 142 -23 80 -23"},"/":{"x_min":-11,"x_max":660,"ha":551,"o":"m 155 -29 l 155 -29 l -11 10 q 21 52 80.5 136.5 q 140 221 218 333 l 218 333 q 252 382 290.5 438.5 q 329 495 366.5 552.5 q 404 610 437.5 662.5 q 471 715 496 756 l 496 756 q 507 749 530 743 q 553 737 579.5 733.5 q 606 730 628.5 727.5 q 651 725 660 724 l 660 724 q 593 624 512 502.5 q 431 381 348 258 l 348 258 q 301 188 253 116.5 q 205 45 155 -29"},":":{"x_min":20,"x_max":255,"ha":195,"o":"m 84 336 l 72 336 q 76 364 80.5 391.5 q 85 419 89 446 l 89 446 q 94 472 98 499 q 102 526 106 553 l 106 553 q 144 553 181 559 q 218 565 255 576 l 255 576 q 241 518 231 458.5 q 221 399 212 340 l 212 340 q 180 338 147.5 337 q 115 336 84 336 l 84 336 m 20 42 l 20 42 q 31 98 40 153 q 49 208 57 264 l 57 264 q 79 265 101.5 265.5 q 124 266 146 266 l 146 266 l 173 266 q 180 266 186 266 q 192 266 199 265 l 199 265 q 195 240 190.5 215 q 186 190 182 165 l 182 165 q 178 140 174 114.5 q 170 89 166 64 l 166 64 q 129 63 92.5 58 q 56 53 20 42"},";":{"x_min":19,"x_max":290,"ha":262,"o":"m 109 336 l 98 336 q 102 364 106 391.5 q 110 419 114 446 l 114 446 l 132 553 q 164 553 207.5 553.5 q 251 554 290 557 l 290 557 q 286 510 280.5 477 q 275 444 269 413 q 263 382 257 340 l 257 340 q 216 338 174 337 q 132 336 109 336 l 109 336 m 176 -26 l 19 -26 q 33 50 51.5 128 q 70 206 77 265 l 77 265 l 103 265 q 111 264 118 264 q 125 264 129 264 l 129 264 q 159 264 175.5 264.5 q 192 265 209.5 265.5 q 227 266 258 267 l 258 267 q 249 222 237 179 q 225 136 210 87.5 q 195 39 176 -26 l 176 -26"},"<":{"x_min":49,"x_max":380,"ha":316,"o":"m 247 29 l 247 29 q 222 55 197 79.5 q 172 104 147 128 l 147 128 q 97 176 49 229 l 49 229 q 56 263 61.5 296.5 q 67 330 72 364 l 72 364 q 77 398 81.5 431.5 q 86 465 91 499 l 91 499 q 165 555 238.5 612 q 312 669 380 736 l 380 736 q 363 679 350 620.5 q 337 562 324 502 l 324 502 q 302 485 280 468.5 q 258 452 235 436 l 235 436 q 212 420 189.5 404 q 167 388 145 371 l 145 371 l 219 305 q 254 271 292 238 l 292 238 q 286 212 280.5 186 q 275 160 270 134 l 270 134 q 265 108 259.5 81.5 q 254 55 247 29"},"=":{"x_min":49,"x_max":372,"ha":350,"o":"m 224 359 l 224 359 q 208 359 193 359 q 178 359 164 360 l 164 360 l 103 360 q 108 400 111 437.5 q 114 475 116 514 l 116 514 q 142 512 167.5 511 q 193 510 219 510 l 219 510 q 258 510 296 512.5 q 334 515 372 520 l 372 520 q 359 480 349 440.5 q 339 401 331 360 l 331 360 l 278 360 q 265 359 251.5 359 q 238 359 224 359 m 49 107 l 49 107 q 62 146 72.5 185 q 83 224 91 265 l 91 265 l 244 265 q 261 265 279 264.5 q 297 264 314 263 l 314 263 q 312 226 310 188.5 q 308 151 306 113 l 306 113 q 254 116 202 116 l 202 116 q 164 116 125.5 114 q 87 112 49 107"},">":{"x_min":6,"x_max":344,"ha":288,"o":"m 6 1 l 6 1 q 21 60 32.5 120 q 44 180 54 240 l 54 240 q 77 257 100.5 273.5 q 124 290 148 306 l 148 306 q 172 322 196 338.5 q 220 355 243 371 l 243 371 q 226 386 209 401 q 192 416 175 432 l 175 432 q 158 448 140.5 463 q 123 478 106 493 l 106 493 q 111 552 118 607 l 118 607 l 130 721 q 182 667 236 615 l 236 615 q 263 589 290 562.5 q 317 536 344 509 l 344 509 q 330 438 318.5 369 q 307 300 297 229 l 297 229 q 260 201 223 174 q 186 147 149 120 l 149 120 q 74 66 6 1"},"?":{"x_min":96,"x_max":512,"ha":438,"o":"m 267 248 l 149 236 q 149 290 164.5 332.5 q 180 375 204 408 q 228 441 253 465 l 253 465 q 291 502 323 530 q 355 558 355 580 l 355 580 q 355 586 347 596.5 q 339 607 322 607 l 322 607 q 304 607 276 592 q 248 577 218 554.5 q 188 532 162 508 l 162 508 l 109 631 q 160 677 224 703.5 q 288 730 354 730 l 354 730 q 395 730 431 718 q 467 706 489.5 678 q 512 650 512 602 l 512 602 q 512 533 479.5 487.5 q 447 442 404 410 l 404 410 q 359 377 319.5 339 q 280 301 267 248 l 267 248 m 174 -23 l 174 -23 q 134 -23 115 1.5 q 96 26 96 60 l 96 60 q 96 86 109 111 q 122 136 147 153 q 172 170 208 170 l 208 170 q 263 170 288.5 146 q 314 122 314 91 l 314 91 q 314 63 297.5 36.5 q 281 10 249.5 -6.5 q 218 -23 174 -23"},"@":{"x_min":45,"x_max":1023,"ha":987,"o":"m 229 103 l 102 -23 q 72 41 58.5 102.5 q 45 164 45 223 l 45 223 q 45 339 100.5 433.5 q 156 528 246 591 l 246 591 q 336 654 445.5 686.5 q 555 719 658 719 l 658 719 q 750 719 818.5 691 q 887 663 933 618 l 933 618 q 978 572 1000.5 513.5 q 1023 455 1023 395 l 1023 395 q 1023 333 1000 274.5 q 977 216 931 169 l 931 169 q 885 123 815.5 94 q 746 65 654 65 l 654 65 q 611 65 584.5 77 q 558 89 558 109 l 558 109 q 558 124 562 136 l 562 136 q 524 112 488 98 q 452 84 415 84 l 415 84 q 338 84 303 121.5 q 268 159 268 210 l 268 210 q 268 251 291 293.5 q 314 336 355.5 374.5 q 397 413 454 441 l 454 441 q 509 468 548 474 l 548 474 q 577 478 593.5 479.5 q 610 481 628 481 l 628 481 q 661 481 702.5 472 q 744 463 788 438 l 788 438 l 776 396 q 771 378 765.5 356 q 760 334 755 314 l 755 314 l 724 188 q 808 234 840 287 q 872 340 872 392 l 872 392 q 872 453 837.5 492.5 q 803 532 746.5 551 q 690 570 622 570 l 622 570 q 545 570 470.5 548 q 396 526 336 483.5 q 276 441 240 380 q 204 319 204 241 l 204 241 q 204 171 229 103 l 229 103 m 490 188 l 490 188 q 536 188 582 212 l 582 212 l 637 390 q 622 394 607 394 l 607 394 q 564 394 521 373.5 q 478 353 449.5 318.5 q 421 284 421 241 l 421 241 q 421 218 435 203 q 449 188 490 188"},"A":{"x_min":-21,"x_max":464,"ha":433,"o":"m 259 2 l 259 2 q 261 19 263 35 q 265 51 267 67 l 267 67 l 273 123 q 274 137 275 149 q 276 161 277 171 l 277 171 l 190 171 l 150 27 q 128 24 98 20.5 q 68 17 42 14 l 42 14 q 26 12 10.5 10 q -5 8 -21 6 l -21 6 l 58 268 q 72 315 90 375 q 108 435 126.5 498 q 145 561 161.5 616.5 q 178 672 188 710 l 188 710 q 256 715 326.5 722 q 397 729 464 741 l 464 741 q 459 685 454.5 614.5 q 450 544 446.5 469 q 443 394 439 321 l 439 321 q 437 252 434 178.5 q 431 105 428 28 l 428 28 q 413 26 398 24 q 383 22 368 20 l 368 20 q 343 16 313 11 q 283 6 259 2 m 276 522 l 214 271 q 220 271 236.5 272 q 253 273 268 274 q 283 275 286 275 l 286 275 q 286 288 290 328 q 294 368 298 412 l 298 412 q 300 438 302.5 465.5 q 305 493 308 522 l 308 522 l 314 609 l 299 608 l 276 522"},"B":{"x_min":-1,"x_max":512,"ha":428,"o":"m 68 -4 l 68 -4 q 31 -4 -1 2 l -1 2 q 47 177 75.5 354.5 q 104 532 130 712 l 130 712 q 182 723 238 731.5 q 294 740 354 740 l 354 740 q 387 740 424 728.5 q 461 717 486.5 687.5 q 512 658 512 604 l 512 604 q 512 554 491 512 q 470 470 438 440 q 406 410 372 397 l 372 397 q 386 390 405 372 q 424 354 438 324 q 452 294 452 251 l 452 251 q 452 191 416.5 142.5 q 381 94 322 62 l 322 62 q 265 30 199 13 q 133 -4 68 -4 m 246 479 l 246 479 q 277 485 305 495 q 333 505 350.5 518 q 368 531 368 546 l 368 546 q 368 565 353 576 q 338 587 317 592 q 296 597 278 597 l 278 597 l 268 597 q 261 557 255 527.5 q 249 498 246 479 m 195 198 l 195 198 q 215 200 239 205 q 263 210 285 220.5 q 307 231 321.5 248.5 q 336 266 336 291 l 336 291 q 336 315 320 329 q 304 343 281.5 349.5 q 259 356 239 356 l 239 356 l 231 356 q 226 356 223 355 l 223 355 q 217 318 209 277 q 201 236 195 198"},"C":{"x_min":39,"x_max":511,"ha":414,"o":"m 182 -2 l 182 -2 q 119 -2 79 57 q 39 116 39 219 l 39 219 q 39 313 65 404.5 q 91 496 138 569 l 138 569 q 185 642 249.5 686.5 q 314 731 392 731 l 392 731 q 441 731 476 693 q 511 655 511 591 l 511 591 l 511 579 q 511 575 511 572 q 511 569 510 565 l 510 565 l 379 530 q 367 555 351 555 l 351 555 q 327 555 300.5 516 q 274 477 250 423 l 250 423 q 234 387 221.5 349 q 209 311 202 278 q 195 245 195 224 l 195 224 q 195 193 204 179 l 204 179 q 211 166 226 166 l 226 166 q 241 166 259 180.5 q 277 195 292.5 217 q 308 239 313 261 l 313 261 l 427 215 q 378 103 310.5 50.5 q 243 -2 182 -2"},"D":{"x_min":4,"x_max":509,"ha":441,"o":"m 60 -5 l 60 -5 q 46 -5 32 -3.5 q 18 -2 4 0 l 4 0 l 57 269 q 67 324 78.5 385.5 q 90 447 101 507.5 q 112 568 120.5 620 q 129 672 134 708 l 134 708 q 177 716 221 723 q 265 730 311 730 l 311 730 q 385 730 428 699.5 q 471 669 490 619.5 q 509 570 509 511 l 509 511 q 509 458 494 399.5 q 479 341 451.5 283.5 q 424 226 386 175 l 386 175 q 327 96 242.5 45.5 q 158 -5 60 -5 m 179 121 l 179 121 q 214 144 245.5 191 q 277 238 305 304 l 305 304 q 330 365 344 419.5 q 358 474 358 510 l 358 510 q 358 547 337.5 568 q 317 589 273 589 l 273 589 q 257 503 240.5 430 q 224 357 208.5 283 q 193 209 179 121"},"E":{"x_min":8,"x_max":455,"ha":341,"o":"m 331 49 l 8 -1 l 139 710 l 455 737 q 448 715 443 692 l 443 692 q 438 673 433.5 652.5 q 429 632 426 616 l 426 616 q 413 615 389 614.5 q 365 614 340 613.5 q 315 613 297 613 q 279 613 278 613 l 278 613 l 243 434 l 301 437 q 312 438 323.5 438 q 335 438 346 438 l 346 438 q 357 438 366 438 q 375 438 380 439 l 380 439 q 378 425 376.5 411.5 q 375 398 373 384 l 373 384 l 364 329 q 359 328 351 328 q 343 328 332 328 l 332 328 q 321 327 309 327 q 297 327 286 326 l 286 326 q 273 325 259 325 q 245 325 229 324 l 229 324 l 195 140 l 341 163 l 331 49"},"F":{"x_min":4,"x_max":470,"ha":341,"o":"m 4 -1 l 4 -1 q 18 47 31 108.5 q 44 170 55.5 234 q 67 298 77 353 q 87 408 93 444 l 93 444 q 104 511 114.5 579.5 q 125 648 135 719 l 135 719 l 470 736 l 441 613 l 284 613 l 253 435 q 269 436 283.5 436 q 298 436 312 436 l 312 436 l 359 436 q 371 436 380 436 q 389 436 396 437 l 396 437 q 395 423 393 409.5 q 391 396 389 382 l 389 382 l 380 328 q 359 328 319.5 329.5 q 280 331 236 332 l 236 332 l 190 37 q 173 34 156.5 31 q 140 28 123 24 l 123 24 q 95 19 62 12 q 29 5 4 -1"},"G":{"x_min":42,"x_max":568,"ha":499,"o":"m 223 -24 l 223 -24 q 186 -24 152.5 -8 q 119 8 95 41 l 95 41 q 70 73 56 122 q 42 171 42 237 l 42 237 q 42 366 79 462 q 116 558 173 622 l 173 622 q 229 686 293.5 717 q 358 748 414 748 l 414 748 q 468 748 502 724.5 q 536 701 552 662 q 568 623 568 575 l 568 575 l 431 549 q 422 589 407 606 q 392 623 373 623 l 373 623 q 351 623 327.5 599 q 304 575 281.5 534.5 q 259 494 241 444 q 223 394 211.5 341 q 200 288 198 241 l 198 241 q 198 179 216.5 152.5 q 235 126 264 126 l 264 126 q 292 126 319.5 144 q 347 162 365.5 192.5 q 384 223 385 261 l 385 261 l 278 245 l 297 344 l 389 356 q 427 361 469.5 368 q 512 375 544 381 l 544 381 q 537 279 504.5 202.5 q 472 126 424 76 q 376 26 323.5 1 q 271 -24 223 -24"},"H":{"x_min":9,"x_max":547,"ha":442,"o":"m 163 30 l 9 -2 q 22 67 34.5 134.5 q 47 202 60 269 l 60 269 q 74 352 86.5 425 q 99 498 111.5 570 q 124 642 136 721 l 136 721 l 298 732 q 281 662 264.5 586 q 248 510 234 438 l 234 438 l 333 449 q 340 484 346.5 518.5 q 353 553 358 587 l 358 587 q 363 620 370.5 654.5 q 378 689 387 724 l 387 724 q 423 730 460 733.5 q 497 737 522 738.5 q 547 740 547 740 l 547 740 q 534 700 521 646 q 508 592 496 532 q 484 472 473 412.5 q 462 353 453 302 l 453 302 q 442 238 432 173.5 q 422 109 412 42 l 412 42 l 256 24 q 263 54 268.5 83.5 q 274 113 279 141 l 279 141 q 289 189 299.5 241 q 310 293 316 330 l 316 330 l 219 321 q 215 302 211.5 280 q 208 258 203 233 l 203 233 q 198 208 193.5 184.5 q 189 161 185 138 l 185 138 q 180 111 174 84 q 168 57 163 30 l 163 30"},"I":{"x_min":-6,"x_max":294,"ha":200,"o":"m -6 1 l -6 1 q 11 60 27.5 135 q 44 210 59.5 288.5 q 75 367 89 437 l 89 437 q 102 501 114 567 q 126 633 138 700 l 138 700 l 294 725 q 281 658 268 592.5 q 255 527 242 462 l 242 462 q 228 392 213 314 q 198 236 184 160.5 q 170 85 158 20 l 158 20 q 140 20 113 17.5 q 86 15 59 11.5 q 32 8 13.5 5 q -5 2 -6 1"},"J":{"x_min":-27,"x_max":400,"ha":279,"o":"m 105 -1 l 105 -1 q 77 -1 44.5 11 q 12 23 -27 52 l -27 52 l 42 206 q 47 196 61.5 188.5 q 76 181 93 181 l 93 181 q 106 181 116 202 q 126 223 132.5 253 q 139 283 143 309.5 q 147 336 148 347 l 148 347 q 158 396 167 444 q 176 492 184 541 l 184 541 q 192 589 202.5 637 q 213 685 224 733 l 224 733 q 269 737 312.5 745.5 q 356 754 400 766 l 400 766 q 385 715 369 650.5 q 353 586 338 517 q 323 448 309.5 383 q 296 318 286 266 l 286 266 q 277 224 264 177.5 q 251 131 230 90.5 q 209 50 178.5 24.5 q 148 -1 105 -1"},"K":{"x_min":7,"x_max":603,"ha":462,"o":"m 169 23 l 7 -1 q 22 69 36 137 q 50 205 63 271 l 63 271 q 84 390 104 506.5 q 124 623 133 729 l 133 729 l 185 726 q 199 725 212.5 724 q 226 723 239 722 l 239 722 q 254 721 269 720.5 q 284 720 299 720 l 299 720 q 297 712 292.5 688 q 288 664 283.5 639.5 q 279 615 277 606 l 277 606 l 259 507 l 265 508 q 294 553 332 612 q 370 671 403 725 l 403 725 q 453 729 503 734 q 553 739 603 747 l 603 747 q 580 716 557 685 q 534 654 512 623 l 512 623 q 489 591 462 553 q 435 515 410.5 478.5 q 386 442 370 416 l 370 416 q 381 366 394 317 q 407 268 422 221 l 422 221 q 437 174 452 126 q 467 78 483 29 l 483 29 q 460 30 436 30.5 q 412 31 389 31 l 389 31 q 360 31 333 30.5 q 306 30 277 29 l 277 29 q 273 61 268 95.5 q 263 130 258 166 l 258 166 q 253 201 248 235.5 q 243 270 238 302 l 238 302 l 220 281 q 213 252 205 207 l 205 207 q 201 185 196.5 163.5 q 192 142 188 122 l 188 122 q 184 98 179 73.5 q 174 49 169 23 l 169 23"},"L":{"x_min":12,"x_max":315,"ha":302,"o":"m 12 -2 l 12 -2 q 23 77 35.5 157 q 48 237 61.5 311.5 q 75 386 87 446 l 87 446 q 100 511 113 578 q 126 645 140 713 l 140 713 l 315 736 l 263 510 q 249 451 234.5 383.5 q 220 316 208 253 q 196 190 189 141 l 189 141 q 214 143 242.5 143.5 q 271 144 293 144 l 293 144 q 294 121 297 95.5 q 300 70 303.5 51.5 q 307 33 307 31 l 307 31 q 303 31 299.5 31 q 296 31 292 32 l 292 32 l 276 32 q 237 32 189.5 28.5 q 142 25 95.5 17.5 q 49 10 12 -2"},"M":{"x_min":-30,"x_max":688,"ha":619,"o":"m 135 17 l -30 6 q 14 140 54 267 l 54 267 q 71 319 89 378 q 107 437 125 496.5 q 143 556 159 611 q 175 666 186 709 l 186 709 q 241 709 290 715 l 290 715 q 315 718 341.5 721 q 368 724 396 726 l 396 726 l 390 677 q 388 663 386 648.5 q 384 634 382 619 l 382 619 q 380 604 377 588.5 q 374 573 372 557 l 372 557 q 368 526 360 470.5 q 352 415 341 350 l 341 350 l 354 350 q 383 426 402 476.5 q 421 527 433 559 l 433 559 q 450 606 470 654 q 490 702 503 728 l 503 728 q 527 730 560.5 734.5 q 594 739 628.5 745 q 663 751 688 755 l 688 755 q 674 671 662.5 585.5 q 651 500 642.5 422.5 q 634 345 628 283 l 628 283 q 622 221 617 160.5 q 612 100 607 41 l 607 41 l 433 10 q 433 12 436 55 q 439 98 446 162 l 446 162 q 453 226 460 283.5 q 467 341 474 378 l 474 378 l 465 378 q 440 302 404.5 212 q 369 122 335 13 l 335 13 q 300 12 275 10.5 q 250 9 217 7 l 217 7 l 249 378 l 234 378 q 233 367 225 335.5 q 217 304 206 263.5 q 195 223 183 183 l 183 183 q 138 26 135 17 l 135 17"},"N":{"x_min":6,"x_max":558,"ha":453,"o":"m 152 29 l 6 -5 q 20 66 33.5 134.5 q 47 203 60 270 l 60 270 q 74 348 88.5 428 q 103 508 115.5 584 q 128 660 135 725 l 135 725 q 151 726 166 727 q 181 728 195 729 l 195 729 q 208 730 221.5 731 q 235 732 248 733 l 248 733 l 296 736 q 303 698 308.5 661 q 314 624 319 589 l 319 589 q 323 565 328.5 533 q 334 501 339.5 467.5 q 345 434 350.5 405 q 356 376 360 358 l 360 358 q 370 411 376.5 445.5 q 383 480 389.5 512.5 q 396 545 405 589 l 405 589 l 436 735 l 558 750 q 541 675 526 604 q 511 533 498 466 l 498 466 q 473 345 454 239.5 q 435 134 425 55 l 425 55 l 262 17 l 247 171 q 245 194 241 226.5 q 237 259 233 293.5 q 229 328 225 356.5 q 221 385 219 399 l 219 399 q 209 340 200 284.5 q 191 229 180 177 l 180 177 q 173 142 166.5 104.5 q 160 67 152 29 l 152 29"},"O":{"x_min":31,"x_max":560,"ha":493,"o":"m 181 -4 l 181 -4 q 115 -4 73 47 q 31 98 31 201 l 31 201 q 31 258 45 321 q 59 384 84 445 q 109 506 142 558 l 142 558 q 195 642 264 695 q 333 748 409 748 l 409 748 q 469 748 501.5 717.5 q 534 687 547 639.5 q 560 592 560 541 l 560 541 q 560 422 523.5 319.5 q 487 217 429 146 l 429 146 q 371 73 305.5 34.5 q 240 -4 181 -4 m 235 161 l 235 161 q 280 161 314.5 191 q 349 221 373 267.5 q 397 314 409 365 q 421 416 421 457 l 421 457 q 421 473 418 491.5 q 415 510 405 524 q 395 538 374 538 l 374 538 q 328 538 291 504.5 q 254 471 229 420 l 229 420 q 204 368 192 318 q 180 268 180 227 l 180 227 q 180 206 195 183.5 q 210 161 235 161"},"P":{"x_min":-3,"x_max":468,"ha":379,"o":"m 170 33 l -3 -1 q 27 134 54 263 l 54 263 q 65 315 76.5 374.5 q 88 434 100 495 q 112 556 122 610.5 q 132 665 138 706 l 138 706 q 178 718 224.5 728 q 271 738 308 738 l 308 738 q 368 738 403 712.5 q 438 687 453 644 q 468 601 468 550 l 468 550 q 468 494 447.5 442.5 q 427 391 392.5 350 q 358 309 313.5 285 q 269 261 221 261 l 221 261 l 210 261 q 202 227 195 187 q 188 147 183 113 l 183 113 q 179 93 176 73 q 173 53 170 33 l 170 33 m 230 366 l 230 366 q 253 372 276 396.5 q 299 421 314 459 q 329 497 329 542 l 329 542 q 329 579 312.5 598 q 296 617 276 617 l 276 617 q 265 551 254 492 q 243 433 230 366"},"Q":{"x_min":31,"x_max":569,"ha":525,"o":"m 451 -48 l 451 -48 q 441 -34 431 -19.5 q 421 -5 410 9 l 410 9 q 399 23 388.5 38 q 378 53 368 68 l 368 68 l 363 76 q 269 -4 181 -4 l 181 -4 q 115 -4 73 47 q 31 98 31 201 l 31 201 q 31 258 45 321 q 59 384 84 445 q 109 506 142 558 l 142 558 q 195 642 264 695 q 333 748 409 748 l 409 748 q 469 748 501.5 717.5 q 534 687 547 639.5 q 560 592 560 541 l 560 541 q 560 443 536 360.5 q 512 278 474 212 l 474 212 l 569 100 q 558 86 547 72 q 536 58 525 44 l 525 44 q 507 21 486.5 -4.5 q 466 -30 451 -48 m 235 161 l 235 161 q 271 161 299 180 l 299 180 l 259 246 q 280 262 296.5 274.5 q 313 287 324 296 l 324 296 q 335 305 343 311.5 q 351 318 356 322 l 356 322 l 370 334 l 392 309 q 405 346 413 385 q 421 424 421 457 l 421 457 q 421 473 418 491.5 q 415 510 405 524 q 395 538 374 538 l 374 538 q 328 538 291 504.5 q 254 471 229 420 l 229 420 q 204 368 192 318 q 180 268 180 227 l 180 227 q 180 206 195 183.5 q 210 161 235 161"},"R":{"x_min":4,"x_max":513,"ha":444,"o":"m 166 41 l 4 -1 l 56 259 q 68 331 82 407 q 96 483 108.5 557 q 121 631 128 696 l 128 696 q 185 714 251 722.5 q 317 731 382 731 l 382 731 q 458 731 485.5 698 q 513 665 513 609 l 513 609 q 513 558 489 506.5 q 465 455 426.5 413.5 q 388 372 342 348 l 342 348 q 360 308 380.5 260.5 q 401 213 419 170 l 419 170 q 429 145 439.5 120 q 450 95 460 70 l 460 70 l 305 16 q 295 51 286 83 q 277 115 269 146 l 269 146 q 259 183 250 217.5 q 241 252 234.5 279 q 228 306 227 317 l 227 317 l 214 313 q 208 281 199.5 235 q 191 189 184 146 l 184 146 l 166 41 m 271 592 l 239 433 q 257 435 283.5 448.5 q 310 462 336.5 482 q 363 502 381 523 q 399 544 399 560 l 399 560 q 399 580 375.5 586.5 q 352 593 314 593 l 314 593 l 292 593 q 286 592 281 592 q 276 592 271 592 l 271 592"},"S":{"x_min":14,"x_max":517,"ha":430,"o":"m 171 -2 l 171 -2 q 131 -2 91 19.5 q 51 41 14 88 l 14 88 l 88 233 q 99 214 120.5 197 q 142 180 166 170 q 190 160 207 160 l 207 160 q 233 160 256.5 176 q 280 192 280 219 l 280 219 q 280 254 248 283 q 216 312 176 340 l 176 340 q 137 368 104.5 403.5 q 72 439 72 485 l 72 485 q 72 537 102 581.5 q 132 626 180 659.5 q 228 693 282.5 711.5 q 337 730 386 730 l 386 730 q 421 730 451 718.5 q 481 707 499 681 q 517 655 517 611 l 517 611 q 517 604 516.5 597 q 516 590 515 583 l 515 583 q 514 576 512.5 568.5 q 511 561 510 553 l 510 553 l 365 511 q 367 519 368.5 527 q 370 535 370 543 l 370 543 q 370 573 359.5 586.5 q 349 600 332 600 l 332 600 q 323 600 306 590.5 q 289 581 275.5 564.5 q 262 548 262 528 l 262 528 q 262 495 289.5 473.5 q 317 452 353 430 l 353 430 q 370 420 391 398.5 q 412 377 427.5 340.5 q 443 304 443 247 l 443 247 q 443 173 406.5 117 q 370 61 308 29.5 q 246 -2 171 -2"},"T":{"x_min":90,"x_max":477,"ha":362,"o":"m 270 27 l 90 -1 q 101 54 112.5 108.5 q 124 163 134 216 l 134 216 q 172 406 196 580 l 196 580 q 185 582 173 582.5 q 161 583 150 582 l 150 582 q 126 580 103 588 l 103 588 q 104 596 104 605.5 q 104 615 104 625 l 104 625 q 104 636 104 646.5 q 104 657 105 667 l 105 667 q 106 678 106 690.5 q 106 703 107 716 l 107 716 q 133 714 159 713 q 185 712 211 712 l 211 712 q 285 712 352.5 717 q 420 722 477 729 l 477 729 l 466 675 l 457 628 q 452 602 448 587 l 448 587 q 437 584 426 582 q 415 580 404 579 l 404 579 q 393 578 381.5 576 q 370 574 359 572 l 359 572 q 344 498 334.5 444 q 325 390 317.5 340.5 q 310 291 300 232 l 300 232 q 283 131 270 27 l 270 27"},"U":{"x_min":31,"x_max":519,"ha":419,"o":"m 165 -18 l 165 -18 q 135 -18 104 -5 q 73 8 52 35 q 31 62 31 104 l 31 104 l 31 112 q 31 117 32 120 l 32 120 q 35 146 40.5 188 q 46 230 54 279.5 q 62 329 70.5 378 q 79 427 86 467 l 86 467 q 101 547 110 596 q 119 645 124.5 671.5 q 130 698 133 711 l 133 711 l 298 727 q 285 666 273.5 611.5 q 262 557 252 508 l 252 508 l 206 287 q 200 262 197 245 l 197 245 q 193 229 188.5 204.5 q 184 180 184 160 l 184 160 q 184 144 192 133.5 q 200 123 212 123 l 212 123 q 229 123 240 136 q 251 149 258 168 q 265 187 269 206.5 q 273 226 276 238 l 276 238 q 286 284 294.5 327.5 q 303 371 312.5 420 q 322 469 334 533 l 334 533 q 342 577 350.5 622.5 q 359 668 367 715 l 367 715 l 519 725 l 484 532 q 477 495 468.5 449 q 460 403 450 356 q 440 309 431.5 267 q 423 225 416 195 l 416 195 q 396 113 354 66.5 q 312 20 261.5 1 q 211 -18 165 -18"},"V":{"x_min":59,"x_max":499,"ha":379,"o":"m 318 30 l 59 -9 q 66 61 72 130 q 78 199 83 266 l 83 266 q 94 388 100.5 506 q 107 624 109 727 l 109 727 q 187 727 226 730.5 q 265 734 265 734 l 265 734 q 260 676 255 628.5 q 250 581 246 544 l 246 544 l 234 423 q 229 368 225.5 330 q 222 292 219 260 q 216 228 211 190 l 211 190 l 229 190 l 341 722 l 396 725 q 409 726 422 726.5 q 435 727 449 728 l 449 728 q 463 729 475.5 730 q 488 731 499 732 l 499 732 q 480 673 460.5 600 q 441 527 421.5 449 q 402 371 382 295 l 382 295 q 366 231 350 164.5 q 334 98 318 30 l 318 30"},"W":{"x_min":41,"x_max":724,"ha":601,"o":"m 249 33 l 41 -4 l 117 706 q 140 707 162.5 709.5 q 185 712 206 716 l 206 716 q 226 720 247 722.5 q 268 725 288 726 l 288 726 l 285 706 q 284 696 281.5 683.5 q 279 671 277 655 l 277 655 q 272 620 265 575 q 258 530 249 475 l 249 475 q 243 441 235.5 393 q 228 345 218 284 l 218 284 l 233 284 q 246 330 257 368 q 268 406 276 435 l 276 435 q 284 464 291.5 487.5 q 299 511 304 530 l 304 530 q 325 604 338 651 q 351 698 355 712 l 355 712 l 364 712 q 390 712 418.5 716 q 447 720 470 725 l 470 725 q 469 721 466 692 q 463 663 459 621 q 455 579 451 534 l 451 534 q 444 449 438.5 386 q 433 323 429 284 l 429 284 l 447 284 l 542 714 l 609 723 q 623 725 638 727 q 653 729 669 731 l 669 731 q 698 735 724 740 l 724 740 q 694 656 664 542 q 634 428 604 311 l 604 311 q 588 247 572.5 181.5 q 557 116 542 48 l 542 48 l 316 10 l 360 396 l 348 396 l 249 33"},"X":{"x_min":-36,"x_max":521,"ha":411,"o":"m 234 -10 l 234 -10 q 233 10 231.5 29.5 q 230 49 229 68 l 229 68 q 228 85 227 101.5 q 226 118 225 134 l 225 134 q 224 151 223 164.5 q 222 178 221 189 l 221 189 l 198 134 q 191 118 183.5 101.5 q 176 85 169 69 l 169 69 q 161 50 152 31.5 q 143 13 134 -6 l 134 -6 l -36 9 q -11 53 14 97.5 q 39 142 64 185 l 64 185 q 89 229 112 274.5 q 135 320 156 367 l 156 367 q 150 412 144.5 447 q 139 482 132 516 l 132 516 q 125 548 117 585.5 q 109 623 101 663 l 101 663 l 261 729 q 266 681 273 625 l 273 625 q 276 597 279 570.5 q 282 544 284 520 l 284 520 l 330 620 q 341 645 352.5 669.5 q 364 694 376 719 l 376 719 l 521 680 q 486 621 459.5 573 q 433 525 409 476 q 385 427 355 364 l 355 364 q 366 288 387 203 q 408 118 426 46 l 426 46 q 424 45 402 39.5 q 380 34 343 23 l 343 23 q 307 13 277.5 4.5 q 248 -4 234 -10"},"Y":{"x_min":77,"x_max":522,"ha":384,"o":"m 248 36 l 77 15 l 123 216 q 123 287 119.5 361.5 q 116 436 111 510 l 111 510 q 107 584 103.5 629 q 100 674 100 674 l 100 674 l 263 736 l 263 614 q 263 556 262.5 509.5 q 262 463 262 428 l 262 428 q 275 462 293.5 512 q 312 562 328 609 l 328 609 q 338 637 347.5 665.5 q 357 694 367 725 l 367 725 l 522 690 q 479 605 438 519 l 438 519 q 414 466 385.5 407.5 q 357 349 332.5 298.5 q 308 248 294 218 l 294 218 q 289 192 281.5 161 q 274 130 267 102 l 267 102 q 263 86 258 69.5 q 253 53 248 36 l 248 36"},"Z":{"x_min":8,"x_max":532,"ha":431,"o":"m 8 9 l 8 9 l 8 155 l 293 542 q 264 542 240.5 539.5 q 217 537 186.5 532.5 q 156 528 104 521 l 104 521 l 123 678 l 532 707 l 506 569 l 233 181 q 247 181 279 182.5 q 311 184 351.5 186.5 q 392 189 431 192 l 431 192 l 431 40 q 419 40 371 38 q 323 36 239 31 l 239 31 q 163 26 101.5 20.5 q 40 15 8 9"},"[":{"x_min":21,"x_max":454,"ha":319,"o":"m 21 -5 l 21 -5 q 35 59 49.5 124 q 64 189 77 256 l 77 256 q 97 349 112.5 430 q 128 511 143 590 q 158 669 173 753 l 173 753 l 179 753 q 193 753 213 754.5 q 233 756 256 757 l 256 757 q 274 758 292 759 q 310 760 327 761 l 327 761 q 357 763 391.5 767 q 426 771 454 777 l 454 777 q 450 763 447 748 q 444 733 440 718 l 440 718 q 436 703 432.5 688 q 429 673 426 659 l 426 659 q 419 658 413 658 q 407 658 401 658 l 401 658 l 319 658 q 304 576 291.5 510 q 279 444 269 388 l 269 388 q 265 369 262 350 q 259 331 255 311 l 255 311 q 248 273 239 222 q 230 171 222 115 l 222 115 q 267 115 294 123 q 321 131 321 130 l 321 130 l 296 25 q 267 21 235 18 q 203 15 168 11 l 168 11 q 133 7 96 3.5 q 59 0 21 -5"},"\\":{"x_min":127,"x_max":485,"ha":510,"o":"m 323 1 l 323 1 q 280 168 227.5 353 q 175 538 127 722 l 127 722 l 128 722 q 133 722 141 723.5 q 149 725 156 726 l 156 726 q 170 728 182.5 730 q 195 732 207 734 l 207 734 q 228 738 249.5 743 q 271 748 285 754 l 285 754 q 313 658 340 555 q 367 452 395 352 l 395 352 q 424 241 446.5 160.5 q 469 80 485 32 l 485 32 q 479 30 462.5 26.5 q 446 23 430 21 l 430 21 q 420 19 409.5 17.5 q 399 16 388 14 l 388 14 l 366 10 q 361 9 355.5 8 q 350 7 345 6 l 345 6 q 340 5 334 3.5 q 328 2 323 1"},"]":{"x_min":-20,"x_max":400,"ha":313,"o":"m -20 -29 l -20 -29 q -19 -18 -17.5 -7 q -16 4 -15 15 l -15 15 q -13 33 -9.5 53 q -6 73 -3 89 l -3 89 q 10 92 31.5 96 q 53 100 73 103 l 73 103 q 86 105 98.5 106.5 q 111 108 124 110 l 124 110 l 215 621 l 101 608 l 109 724 l 400 761 q 386 698 372.5 633.5 q 359 569 346 504 l 346 504 q 332 439 315.5 353.5 q 299 268 283 177.5 q 267 87 254 5 l 254 5 q 240 4 202 -1 q 164 -6 102 -14 l 102 -14 q 74 -18 43.5 -21.5 q 13 -25 -20 -29"},"^":{"x_min":111,"x_max":448,"ha":400,"o":"m 448 606 l 448 606 q 412 610 376.5 612.5 q 341 615 305 615 l 305 615 q 304 625 304 634.5 q 304 644 304 654 l 304 654 l 304 755 l 283 683 q 278 665 272.5 647 q 267 629 261 612 l 261 612 q 254 613 247.5 613 q 241 613 234 613 l 234 613 l 209 613 q 161 613 111 610 l 111 610 q 152 672 183 744 l 183 744 q 198 779 214 814.5 q 230 850 247 884 l 247 884 q 254 883 260.5 883 q 267 883 274 883 l 274 883 l 300 883 q 329 883 358 884 q 387 885 417 887 l 417 887 q 414 870 413.5 853 q 413 836 413 818 l 413 818 q 413 763 421.5 709.5 q 430 656 448 606"},"_":{"x_min":-53,"x_max":390,"ha":401,"o":"m 368 -109 l 368 -109 q 310 -109 247.5 -107.5 q 185 -106 136 -106 l 136 -106 q 89 -106 41.5 -106.5 q -6 -107 -53 -108 l -53 -108 q -48 -97 -44 -78.5 q -40 -60 -37 -41 l -37 -41 q -35 -31 -33 -20 q -31 -9 -30 3 l -30 3 q 28 2 64 1 q 100 0 127.5 0 q 155 0 188 0 l 188 0 q 239 0 289 1 q 339 2 390 4 l 390 4 q 383 -16 376.5 -49.5 q 370 -83 368 -109"},"`":{"x_min":49,"x_max":310,"ha":358,"o":"m 310 660 l 303 579 q 278 585 253 591 q 228 597 205 603 l 205 603 q 164 612 121 623.5 q 78 635 49 644 l 49 644 q 55 673 63 714.5 q 71 756 78 795 l 78 795 l 96 889 q 116 868 135.5 847.5 q 155 827 174 807 l 174 807 q 207 772 244.5 732 q 282 692 310 660 l 310 660"},"a":{"x_min":-21,"x_max":464,"ha":433,"o":"m 259 2 l 259 2 q 261 19 263 35 q 265 51 267 67 l 267 67 l 273 123 q 274 137 275 149 q 276 161 277 171 l 277 171 l 190 171 l 150 27 q 128 24 98 20.5 q 68 17 42 14 l 42 14 q 26 12 10.5 10 q -5 8 -21 6 l -21 6 l 58 268 q 72 315 90 375 q 108 435 126.5 498 q 145 561 161.5 616.5 q 178 672 188 710 l 188 710 q 256 715 326.5 722 q 397 729 464 741 l 464 741 q 459 685 454.5 614.5 q 450 544 446.5 469 q 443 394 439 321 l 439 321 q 437 252 434 178.5 q 431 105 428 28 l 428 28 q 413 26 398 24 q 383 22 368 20 l 368 20 q 343 16 313 11 q 283 6 259 2 m 276 522 l 214 271 q 220 271 236.5 272 q 253 273 268 274 q 283 275 286 275 l 286 275 q 286 288 290 328 q 294 368 298 412 l 298 412 q 300 438 302.5 465.5 q 305 493 308 522 l 308 522 l 314 609 l 299 608 l 276 522"},"b":{"x_min":-1,"x_max":512,"ha":428,"o":"m 68 -4 l 68 -4 q 31 -4 -1 2 l -1 2 q 47 177 75.5 354.5 q 104 532 130 712 l 130 712 q 182 723 238 731.5 q 294 740 354 740 l 354 740 q 387 740 424 728.5 q 461 717 486.5 687.5 q 512 658 512 604 l 512 604 q 512 554 491 512 q 470 470 438 440 q 406 410 372 397 l 372 397 q 386 390 405 372 q 424 354 438 324 q 452 294 452 251 l 452 251 q 452 191 416.5 142.5 q 381 94 322 62 l 322 62 q 265 30 199 13 q 133 -4 68 -4 m 246 479 l 246 479 q 277 485 305 495 q 333 505 350.5 518 q 368 531 368 546 l 368 546 q 368 565 353 576 q 338 587 317 592 q 296 597 278 597 l 278 597 l 268 597 q 261 557 255 527.5 q 249 498 246 479 m 195 198 l 195 198 q 215 200 239 205 q 263 210 285 220.5 q 307 231 321.5 248.5 q 336 266 336 291 l 336 291 q 336 315 320 329 q 304 343 281.5 349.5 q 259 356 239 356 l 239 356 l 231 356 q 226 356 223 355 l 223 355 q 217 318 209 277 q 201 236 195 198"},"c":{"x_min":39,"x_max":511,"ha":414,"o":"m 182 -2 l 182 -2 q 119 -2 79 57 q 39 116 39 219 l 39 219 q 39 313 65 404.5 q 91 496 138 569 l 138 569 q 185 642 249.5 686.5 q 314 731 392 731 l 392 731 q 441 731 476 693 q 511 655 511 591 l 511 591 l 511 579 q 511 575 511 572 q 511 569 510 565 l 510 565 l 379 530 q 367 555 351 555 l 351 555 q 327 555 300.5 516 q 274 477 250 423 l 250 423 q 234 387 221.5 349 q 209 311 202 278 q 195 245 195 224 l 195 224 q 195 193 204 179 l 204 179 q 211 166 226 166 l 226 166 q 241 166 259 180.5 q 277 195 292.5 217 q 308 239 313 261 l 313 261 l 427 215 q 378 103 310.5 50.5 q 243 -2 182 -2"},"d":{"x_min":4,"x_max":509,"ha":441,"o":"m 60 -5 l 60 -5 q 46 -5 32 -3.5 q 18 -2 4 0 l 4 0 l 57 269 q 67 324 78.5 385.5 q 90 447 101 507.5 q 112 568 120.5 620 q 129 672 134 708 l 134 708 q 177 716 221 723 q 265 730 311 730 l 311 730 q 385 730 428 699.5 q 471 669 490 619.5 q 509 570 509 511 l 509 511 q 509 458 494 399.5 q 479 341 451.5 283.5 q 424 226 386 175 l 386 175 q 327 96 242.5 45.5 q 158 -5 60 -5 m 179 121 l 179 121 q 214 144 245.5 191 q 277 238 305 304 l 305 304 q 330 365 344 419.5 q 358 474 358 510 l 358 510 q 358 547 337.5 568 q 317 589 273 589 l 273 589 q 257 503 240.5 430 q 224 357 208.5 283 q 193 209 179 121"},"e":{"x_min":8,"x_max":455,"ha":341,"o":"m 331 49 l 8 -1 l 139 710 l 455 737 q 448 715 443 692 l 443 692 q 438 673 433.5 652.5 q 429 632 426 616 l 426 616 q 413 615 389 614.5 q 365 614 340 613.5 q 315 613 297 613 q 279 613 278 613 l 278 613 l 243 434 l 301 437 q 312 438 323.5 438 q 335 438 346 438 l 346 438 q 357 438 366 438 q 375 438 380 439 l 380 439 q 378 425 376.5 411.5 q 375 398 373 384 l 373 384 l 364 329 q 359 328 351 328 q 343 328 332 328 l 332 328 q 321 327 309 327 q 297 327 286 326 l 286 326 q 273 325 259 325 q 245 325 229 324 l 229 324 l 195 140 l 341 163 l 331 49"},"f":{"x_min":4,"x_max":470,"ha":341,"o":"m 4 -1 l 4 -1 q 18 47 31 108.5 q 44 170 55.5 234 q 67 298 77 353 q 87 408 93 444 l 93 444 q 104 511 114.5 579.5 q 125 648 135 719 l 135 719 l 470 736 l 441 613 l 284 613 l 253 435 q 269 436 283.5 436 q 298 436 312 436 l 312 436 l 359 436 q 371 436 380 436 q 389 436 396 437 l 396 437 q 395 423 393 409.5 q 391 396 389 382 l 389 382 l 380 328 q 359 328 319.5 329.5 q 280 331 236 332 l 236 332 l 190 37 q 173 34 156.5 31 q 140 28 123 24 l 123 24 q 95 19 62 12 q 29 5 4 -1"},"g":{"x_min":42,"x_max":568,"ha":499,"o":"m 223 -24 l 223 -24 q 186 -24 152.5 -8 q 119 8 95 41 l 95 41 q 70 73 56 122 q 42 171 42 237 l 42 237 q 42 366 79 462 q 116 558 173 622 l 173 622 q 229 686 293.5 717 q 358 748 414 748 l 414 748 q 468 748 502 724.5 q 536 701 552 662 q 568 623 568 575 l 568 575 l 431 549 q 422 589 407 606 q 392 623 373 623 l 373 623 q 351 623 327.5 599 q 304 575 281.5 534.5 q 259 494 241 444 q 223 394 211.5 341 q 200 288 198 241 l 198 241 q 198 179 216.5 152.5 q 235 126 264 126 l 264 126 q 292 126 319.5 144 q 347 162 365.5 192.5 q 384 223 385 261 l 385 261 l 278 245 l 297 344 l 389 356 q 427 361 469.5 368 q 512 375 544 381 l 544 381 q 537 279 504.5 202.5 q 472 126 424 76 q 376 26 323.5 1 q 271 -24 223 -24"},"h":{"x_min":8,"x_max":546,"ha":441,"o":"m 162 30 l 8 -2 q 37 138 62 271 l 62 271 q 76 352 90.5 435 q 105 518 117 594 q 129 670 135 730 l 135 730 q 162 729 179.5 727.5 q 197 726 212.5 725 q 228 724 247.5 723.5 q 267 723 297 723 l 297 723 q 280 652 263.5 581 q 247 510 233 438 l 233 438 l 332 449 q 339 484 345.5 518.5 q 352 553 357 587 l 357 587 q 362 620 369.5 654.5 q 377 689 386 724 l 386 724 q 422 730 459 733.5 q 496 737 521 738.5 q 546 740 546 740 l 546 740 q 533 700 520 646 q 507 592 495 532 q 483 472 472 412.5 q 461 353 452 302 l 452 302 q 441 238 431 173.5 q 421 109 411 42 l 411 42 l 255 24 q 262 54 267.5 83.5 q 273 113 278 141 l 278 141 q 288 189 298.5 241 q 309 293 315 330 l 315 330 l 218 321 q 214 302 210.5 280 q 207 258 202 233 l 202 233 q 197 208 192.5 184.5 q 188 161 184 138 l 184 138 q 179 111 173 84 q 167 57 162 30 l 162 30"},"i":{"x_min":5,"x_max":285,"ha":202,"o":"m 5 1 l 5 1 q 19 59 33 132.5 q 47 206 61 285 q 75 364 87 437 l 87 437 q 98 501 108.5 567 q 119 633 129 700 l 129 700 l 285 725 l 240 462 q 225 369 213.5 295 q 202 221 191.5 155 q 181 89 170 20 l 170 20 q 151 20 124 17.5 q 97 15 70 11.5 q 43 8 24.5 5 q 6 2 5 1"},"j":{"x_min":-27,"x_max":400,"ha":279,"o":"m 105 -1 l 105 -1 q 77 -1 44.5 11 q 12 23 -27 52 l -27 52 l 42 206 q 47 196 61.5 188.5 q 76 181 93 181 l 93 181 q 106 181 116 202 q 126 223 132.5 253 q 139 283 143 309.5 q 147 336 148 347 l 148 347 q 158 396 167 444 q 176 492 184 541 l 184 541 q 192 589 202.5 637 q 213 685 224 733 l 224 733 q 269 737 312.5 745.5 q 356 754 400 766 l 400 766 q 385 715 369 650.5 q 353 586 338 517 q 323 448 309.5 383 q 296 318 286 266 l 286 266 q 277 224 264 177.5 q 251 131 230 90.5 q 209 50 178.5 24.5 q 148 -1 105 -1"},"k":{"x_min":7,"x_max":603,"ha":462,"o":"m 169 23 l 7 -1 q 22 69 36 137 q 50 205 63 271 l 63 271 q 84 390 104 506.5 q 124 623 133 729 l 133 729 l 185 726 q 199 725 212.5 724 q 226 723 239 722 l 239 722 q 254 721 269 720.5 q 284 720 299 720 l 299 720 q 297 712 292.5 688 q 288 664 283.5 639.5 q 279 615 277 606 l 277 606 l 259 507 l 265 508 q 294 553 332 612 q 370 671 403 725 l 403 725 q 453 729 503 734 q 553 739 603 747 l 603 747 q 580 716 557 685 q 534 654 512 623 l 512 623 q 489 591 462 553 q 435 515 410.5 478.5 q 386 442 370 416 l 370 416 q 381 366 394 317 q 407 268 422 221 l 422 221 q 437 174 452 126 q 467 78 483 29 l 483 29 q 460 30 436 30.5 q 412 31 389 31 l 389 31 q 360 31 333 30.5 q 306 30 277 29 l 277 29 q 273 61 268 95.5 q 263 130 258 166 l 258 166 q 253 201 248 235.5 q 243 270 238 302 l 238 302 l 220 281 q 213 252 205 207 l 205 207 q 201 185 196.5 163.5 q 192 142 188 122 l 188 122 q 184 98 179 73.5 q 174 49 169 23 l 169 23"},"l":{"x_min":12,"x_max":315,"ha":302,"o":"m 12 -2 l 12 -2 q 23 77 35.5 157 q 48 237 61.5 311.5 q 75 386 87 446 l 87 446 q 100 511 113 578 q 126 645 140 713 l 140 713 l 315 736 l 263 510 q 249 451 234.5 383.5 q 220 316 208 253 q 196 190 189 141 l 189 141 q 214 143 242.5 143.5 q 271 144 293 144 l 293 144 q 294 121 297 95.5 q 300 70 303.5 51.5 q 307 33 307 31 l 307 31 q 303 31 299.5 31 q 296 31 292 32 l 292 32 l 276 32 q 237 32 189.5 28.5 q 142 25 95.5 17.5 q 49 10 12 -2"},"m":{"x_min":-30,"x_max":688,"ha":619,"o":"m 135 17 l -30 6 q 14 140 54 267 l 54 267 q 71 319 89 378 q 107 437 125 496.5 q 143 556 159 611 q 175 666 186 709 l 186 709 q 241 709 290 715 l 290 715 q 315 718 341.5 721 q 368 724 396 726 l 396 726 l 390 677 q 388 663 386 648.5 q 384 634 382 619 l 382 619 q 380 604 377 588.5 q 374 573 372 557 l 372 557 q 368 526 360 470.5 q 352 415 341 350 l 341 350 l 354 350 q 383 426 402 476.5 q 421 527 433 559 l 433 559 q 450 606 470 654 q 490 702 503 728 l 503 728 q 527 730 560.5 734.5 q 594 739 628.5 745 q 663 751 688 755 l 688 755 q 674 671 662.5 585.5 q 651 500 642.5 422.5 q 634 345 628 283 l 628 283 q 622 221 617 160.5 q 612 100 607 41 l 607 41 l 433 10 q 433 12 436 55 q 439 98 446 162 l 446 162 q 453 226 460 283.5 q 467 341 474 378 l 474 378 l 465 378 q 440 302 404.5 212 q 369 122 335 13 l 335 13 q 300 12 275 10.5 q 250 9 217 7 l 217 7 l 249 378 l 234 378 q 233 367 225 335.5 q 217 304 206 263.5 q 195 223 183 183 l 183 183 q 138 26 135 17 l 135 17"},"n":{"x_min":5,"x_max":557,"ha":452,"o":"m 151 29 l 5 -5 q 35 139 62 274 l 62 274 q 84 401 105 518 q 126 635 135 733 l 135 733 q 142 732 147.5 732 q 153 732 157 732 l 157 732 l 178 732 q 204 732 236 733.5 q 268 735 295 736 l 295 736 q 302 701 308.5 667 q 315 633 320 601 l 320 601 q 325 573 331 543.5 q 337 514 343 484 l 343 484 q 348 454 353.5 428.5 q 359 403 363 382 l 363 382 q 375 441 385.5 498 q 396 555 406 601 l 406 601 l 435 735 l 557 750 q 540 674 525 601 q 510 528 497 460 l 497 460 q 472 338 453 230 q 434 122 424 42 l 424 42 q 435 42 420.5 39.5 q 406 37 378 32.5 q 350 28 318 21 q 286 14 261 4 l 261 4 q 258 44 255 82 q 252 120 248 156 l 248 156 q 242 220 234 283 q 226 346 218 383 l 218 383 q 211 339 201 282.5 q 191 226 179 169 l 179 169 l 151 29"},"o":{"x_min":31,"x_max":560,"ha":493,"o":"m 181 -4 l 181 -4 q 115 -4 73 47 q 31 98 31 201 l 31 201 q 31 258 45 321 q 59 384 84 445 q 109 506 142 558 l 142 558 q 195 642 264 695 q 333 748 409 748 l 409 748 q 469 748 501.5 717.5 q 534 687 547 639.5 q 560 592 560 541 l 560 541 q 560 422 523.5 319.5 q 487 217 429 146 l 429 146 q 371 73 305.5 34.5 q 240 -4 181 -4 m 235 161 l 235 161 q 280 161 314.5 191 q 349 221 373 267.5 q 397 314 409 365 q 421 416 421 457 l 421 457 q 421 473 418 491.5 q 415 510 405 524 q 395 538 374 538 l 374 538 q 328 538 291 504.5 q 254 471 229 420 l 229 420 q 204 368 192 318 q 180 268 180 227 l 180 227 q 180 206 195 183.5 q 210 161 235 161"},"p":{"x_min":-3,"x_max":468,"ha":379,"o":"m 170 33 l -3 -1 q 27 134 54 263 l 54 263 q 65 315 76.5 374.5 q 88 434 100 495 q 112 556 122 610.5 q 132 665 138 706 l 138 706 q 178 718 224.5 728 q 271 738 308 738 l 308 738 q 368 738 403 712.5 q 438 687 453 644 q 468 601 468 550 l 468 550 q 468 494 447.5 442.5 q 427 391 392.5 350 q 358 309 313.5 285 q 269 261 221 261 l 221 261 l 210 261 q 202 227 195 187 q 188 147 183 113 l 183 113 q 179 93 176 73 q 173 53 170 33 l 170 33 m 230 366 l 230 366 q 253 372 276 396.5 q 299 421 314 459 q 329 497 329 542 l 329 542 q 329 579 312.5 598 q 296 617 276 617 l 276 617 q 265 551 254 492 q 243 433 230 366"},"q":{"x_min":31,"x_max":569,"ha":525,"o":"m 451 -48 l 451 -48 q 441 -34 431 -19.5 q 421 -5 410 9 l 410 9 q 399 23 388.5 38 q 378 53 368 68 l 368 68 l 363 76 q 269 -4 181 -4 l 181 -4 q 115 -4 73 47 q 31 98 31 201 l 31 201 q 31 258 45 321 q 59 384 84 445 q 109 506 142 558 l 142 558 q 195 642 264 695 q 333 748 409 748 l 409 748 q 469 748 501.5 717.5 q 534 687 547 639.5 q 560 592 560 541 l 560 541 q 560 443 536 360.5 q 512 278 474 212 l 474 212 l 569 100 q 558 86 547 72 q 536 58 525 44 l 525 44 q 507 21 486.5 -4.5 q 466 -30 451 -48 m 235 161 l 235 161 q 271 161 299 180 l 299 180 l 259 246 q 280 262 296.5 274.5 q 313 287 324 296 l 324 296 q 335 305 343 311.5 q 351 318 356 322 l 356 322 l 370 334 l 392 309 q 405 346 413 385 q 421 424 421 457 l 421 457 q 421 473 418 491.5 q 415 510 405 524 q 395 538 374 538 l 374 538 q 328 538 291 504.5 q 254 471 229 420 l 229 420 q 204 368 192 318 q 180 268 180 227 l 180 227 q 180 206 195 183.5 q 210 161 235 161"},"r":{"x_min":4,"x_max":513,"ha":444,"o":"m 166 41 l 4 -1 l 56 259 q 68 331 82 407 q 96 483 108.5 557 q 121 631 128 696 l 128 696 q 185 714 251 722.5 q 317 731 382 731 l 382 731 q 458 731 485.5 698 q 513 665 513 609 l 513 609 q 513 558 489 506.5 q 465 455 426.5 413.5 q 388 372 342 348 l 342 348 q 360 308 380.5 260.5 q 401 213 419 170 l 419 170 q 429 145 439.5 120 q 450 95 460 70 l 460 70 l 305 16 l 269 136 q 254 186 241.5 232.5 q 229 279 227 298 l 227 298 l 214 294 q 211 278 207.5 259.5 q 204 241 200 219 l 200 219 q 196 197 192 176.5 q 188 156 184 136 l 184 136 l 166 41 m 271 592 l 239 433 q 257 435 283.5 448.5 q 310 462 336.5 482 q 363 502 381 523 q 399 544 399 560 l 399 560 q 399 580 375.5 586.5 q 352 593 314 593 l 314 593 l 292 593 q 286 592 281 592 q 276 592 271 592 l 271 592"},"s":{"x_min":14,"x_max":517,"ha":430,"o":"m 171 -2 l 171 -2 q 131 -2 91 19.5 q 51 41 14 88 l 14 88 l 88 233 q 99 214 120.5 197 q 142 180 166 170 q 190 160 207 160 l 207 160 q 233 160 256.5 176 q 280 192 280 219 l 280 219 q 280 254 248 283 q 216 312 176 340 l 176 340 q 137 368 104.5 403.5 q 72 439 72 485 l 72 485 q 72 537 102 581.5 q 132 626 180 659.5 q 228 693 282.5 711.5 q 337 730 386 730 l 386 730 q 421 730 451 718.5 q 481 707 499 681 q 517 655 517 611 l 517 611 q 517 604 516.5 597 q 516 590 515 583 l 515 583 q 514 576 512.5 568.5 q 511 561 510 553 l 510 553 l 365 511 q 367 519 368.5 527 q 370 535 370 543 l 370 543 q 370 573 359.5 586.5 q 349 600 332 600 l 332 600 q 323 600 306 590.5 q 289 581 275.5 564.5 q 262 548 262 528 l 262 528 q 262 495 289.5 473.5 q 317 452 353 430 l 353 430 q 370 420 391 398.5 q 412 377 427.5 340.5 q 443 304 443 247 l 443 247 q 443 173 406.5 117 q 370 61 308 29.5 q 246 -2 171 -2"},"t":{"x_min":90,"x_max":477,"ha":362,"o":"m 270 27 l 90 -1 q 101 54 112.5 108.5 q 124 163 134 216 l 134 216 q 172 406 196 580 l 196 580 q 185 582 173 582.5 q 161 583 150 582 l 150 582 q 126 580 103 588 l 103 588 q 104 596 104 605.5 q 104 615 104 625 l 104 625 q 104 636 104 646.5 q 104 657 105 667 l 105 667 q 106 678 106 690.5 q 106 703 107 716 l 107 716 q 133 714 159 713 q 185 712 211 712 l 211 712 q 285 712 352.5 717 q 420 722 477 729 l 477 729 l 466 675 l 457 628 q 452 602 448 587 l 448 587 q 437 584 426 582 q 415 580 404 579 l 404 579 q 393 578 381.5 576 q 370 574 359 572 l 359 572 q 344 498 334.5 444 q 325 390 317.5 340.5 q 310 291 300 232 l 300 232 q 283 131 270 27 l 270 27"},"u":{"x_min":31,"x_max":519,"ha":419,"o":"m 165 -18 l 165 -18 q 135 -18 104 -5 q 73 8 52 35 q 31 62 31 104 l 31 104 l 31 112 q 31 117 32 120 l 32 120 q 35 146 40.5 188 q 46 230 54 279.5 q 62 329 70.5 378 q 79 427 86 467 l 86 467 q 101 547 110 596 q 119 645 124.5 671.5 q 130 698 133 711 l 133 711 q 144 712 156.5 713.5 q 169 715 183 716 l 183 716 q 197 718 210.5 719 q 224 720 237 721 l 237 721 l 298 727 q 285 666 273.5 611.5 q 262 557 252 508 l 252 508 l 206 287 q 200 262 197 245 l 197 245 q 193 229 188.5 204.5 q 184 180 184 160 l 184 160 q 184 144 192 133.5 q 200 123 212 123 l 212 123 q 229 123 240 136 q 251 149 258 168 q 265 187 269 206.5 q 273 226 276 238 l 276 238 q 286 284 294.5 327.5 q 303 371 312.5 420 q 322 469 334 533 l 334 533 q 342 577 350.5 622.5 q 359 668 367 715 l 367 715 l 519 725 q 519 725 510 677 q 501 629 484 532 l 484 532 q 477 495 468.5 449 q 460 403 450 356 q 440 309 431.5 267 q 423 225 416 195 l 416 195 q 396 113 354 66.5 q 312 20 261.5 1 q 211 -18 165 -18"},"v":{"x_min":59,"x_max":499,"ha":379,"o":"m 318 30 l 59 -9 q 66 61 72 130 q 78 199 83 266 l 83 266 q 94 388 100.5 506 q 107 624 109 727 l 109 727 q 187 727 226 730.5 q 265 734 265 734 l 265 734 q 260 676 255 628.5 q 250 581 246 544 l 246 544 l 234 423 q 229 368 225.5 330 q 222 292 219 260 q 216 228 211 190 l 211 190 l 229 190 l 341 722 l 396 725 q 409 726 422 726.5 q 435 727 449 728 l 449 728 q 463 729 475.5 730 q 488 731 499 732 l 499 732 q 480 673 460.5 600 q 441 527 421.5 449 q 402 371 382 295 l 382 295 q 366 231 350 164.5 q 334 98 318 30 l 318 30"},"w":{"x_min":41,"x_max":724,"ha":601,"o":"m 249 33 l 41 -4 l 117 706 q 140 707 162.5 709.5 q 185 712 206 716 l 206 716 q 226 720 247 722.5 q 268 725 288 726 l 288 726 l 285 706 q 284 696 281.5 683.5 q 279 671 277 655 l 277 655 q 272 620 265 575 q 258 530 249 475 l 249 475 q 243 441 235.5 393 q 228 345 218 284 l 218 284 l 233 284 q 246 330 257 368 q 268 406 276 435 l 276 435 q 284 464 291.5 487.5 q 299 511 304 530 l 304 530 q 325 604 338 651 q 351 698 355 712 l 355 712 l 364 712 q 390 712 418.5 716 q 447 720 470 725 l 470 725 q 469 721 466 692 q 463 663 459 621 q 455 579 451 534 l 451 534 q 444 449 438.5 386 q 433 323 429 284 l 429 284 l 447 284 l 542 714 l 609 723 q 623 725 638 727 q 653 729 669 731 l 669 731 q 698 735 724 740 l 724 740 q 694 656 664 542 q 634 428 604 311 l 604 311 q 588 247 572.5 181.5 q 557 116 542 48 l 542 48 l 316 10 l 360 396 l 348 396 l 249 33"},"x":{"x_min":-36,"x_max":521,"ha":411,"o":"m 234 -10 l 234 -10 q 233 10 231.5 29.5 q 230 49 229 68 l 229 68 q 228 85 227 101.5 q 226 118 225 134 l 225 134 q 224 151 223 164.5 q 222 178 221 189 l 221 189 l 198 134 q 191 118 183.5 101.5 q 176 85 169 69 l 169 69 q 161 50 152 31.5 q 143 13 134 -6 l 134 -6 l -36 9 q -11 53 14 97.5 q 39 142 64 185 l 64 185 q 89 229 112 274.5 q 135 320 156 367 l 156 367 q 150 412 144.5 447 q 139 482 132 516 l 132 516 q 125 548 117 585.5 q 109 623 101 663 l 101 663 l 261 729 q 266 681 273 625 l 273 625 q 276 597 279 570.5 q 282 544 284 520 l 284 520 l 330 620 q 341 645 352.5 669.5 q 364 694 376 719 l 376 719 l 521 680 q 486 621 459.5 573 q 433 525 409 476 q 385 427 355 364 l 355 364 q 366 288 387 203 q 408 118 426 46 l 426 46 q 424 45 402 39.5 q 380 34 343 23 l 343 23 q 307 13 277.5 4.5 q 248 -4 234 -10"},"y":{"x_min":77,"x_max":522,"ha":384,"o":"m 248 36 l 77 15 l 123 216 q 123 287 119.5 361.5 q 116 436 111 510 l 111 510 q 107 584 103.5 629 q 100 674 100 674 l 100 674 l 263 736 l 263 614 q 263 556 262.5 509.5 q 262 463 262 428 l 262 428 q 275 462 293.5 512 q 312 562 328 609 l 328 609 q 338 637 347.5 665.5 q 357 694 367 725 l 367 725 l 522 690 q 479 605 438 519 l 438 519 q 414 466 385.5 407.5 q 357 349 332.5 298.5 q 308 248 294 218 l 294 218 q 289 192 281.5 161 q 274 130 267 102 l 267 102 q 263 86 258 69.5 q 253 53 248 36 l 248 36"},"z":{"x_min":9,"x_max":532,"ha":431,"o":"m 9 9 l 9 9 l 9 155 l 293 542 q 271 542 237 538.5 q 203 535 172.5 530.5 q 142 526 128 523 l 128 523 l 104 521 l 123 678 l 532 707 l 506 569 l 233 181 q 247 181 279.5 182.5 q 312 184 353.5 186.5 q 395 189 434 192 l 434 192 l 434 40 q 422 40 372.5 38 q 323 36 239 31 l 239 31 q 163 26 102 20.5 q 41 15 9 9"},"{":{"x_min":34,"x_max":359,"ha":281,"o":"m 295 152 l 242 7 q 186 36 149 85 q 112 134 112 205 l 112 205 q 112 237 107.5 265 q 103 293 86.5 311.5 q 70 330 34 334 l 34 334 l 52 449 l 60 449 q 93 449 110.5 463.5 q 128 478 137 503 q 146 528 152 559 l 152 559 q 158 589 173 621 l 173 621 q 188 652 217.5 681 q 247 710 302 731 l 302 731 l 359 584 q 310 580 289 552.5 q 268 525 259 491 l 259 491 q 250 457 234 426 q 218 395 177 384 l 177 384 q 212 371 221.5 341 q 231 311 231 266 l 231 266 l 231 230 q 231 206 252 183 q 273 160 295 152 l 295 152"},"|":{"x_min":22,"x_max":320,"ha":248,"o":"m 22 -19 l 22 -19 q 45 81 68 200.5 q 91 320 115 450 l 115 450 q 128 521 141 595.5 q 154 670 167 746 l 167 746 l 320 758 q 306 683 293 611 q 280 539 267 469 l 267 469 q 252 391 237 305.5 q 222 220 209 140.5 q 196 61 188 0 l 188 0 q 170 0 142.5 -2.5 q 115 -5 88 -8.5 q 61 -12 42 -15 q 23 -18 22 -19"},"}":{"x_min":19,"x_max":345,"ha":273,"o":"m 30 7 l 30 7 l 19 143 q 57 151 87.5 169.5 q 118 188 123 230 l 123 230 q 126 257 134 286 q 142 315 158 339 q 174 363 201 374 l 201 374 q 167 388 159.5 424.5 q 152 461 153 502 l 153 502 q 155 544 142 575.5 q 129 607 85 613 l 85 613 l 174 731 q 221 711 242 683 q 263 655 268.5 624 q 274 593 274 564 l 274 564 l 274 538 q 273 531 273 525 q 273 519 273 514 l 273 514 q 273 480 284.5 459.5 q 296 439 337 439 l 337 439 l 345 439 l 330 324 q 283 318 262.5 284 q 242 250 234 195 l 234 195 q 228 149 198.5 109 q 169 69 125 42 q 81 15 30 7"},"~":{"x_min":34,"x_max":478,"ha":421,"o":"m 117 234 l 117 234 q 104 240 87 248.5 q 70 257 55.5 265.5 q 41 274 34 278 l 34 278 q 36 278 42.5 303 q 49 328 73 374 l 73 374 q 93 412 127.5 441 q 162 470 209 470 l 209 470 q 237 470 257 457.5 q 277 445 292 428.5 q 307 412 319 399.5 q 331 387 343 387 l 343 387 q 355 387 367 406 l 367 406 q 378 423 395 473 l 395 473 q 433 455 455 443 l 455 443 q 462 439 467.5 436 q 473 433 478 429 l 478 429 q 473 402 465 378 q 457 354 446 333 l 446 333 q 437 310 418 287.5 q 399 265 373 250.5 q 347 236 316 236 l 316 236 q 297 236 279 249 q 261 262 243.5 279.5 q 226 297 209.5 310 q 193 323 177 323 l 177 323 q 159 323 146 304 l 146 304 q 131 284 117 234"}}}
